HIERARCHY
ROOT Hips
{
  OFFSET 5.80788e-005 67.184 3.4734
  CHANNELS 6 Xposition Yposition Zposition Zrotation Xrotation Yrotation
  JOINT Chest
  {
    OFFSET 0 8.7983 -4.7612
    CHANNELS 6 Xposition Yposition Zposition Zrotation Xrotation Yrotation
    JOINT Chest2
    {
      OFFSET 0 8.0291 0.4195
      CHANNELS 6 Xposition Yposition Zposition Zrotation Xrotation Yrotation
      JOINT Chest3
      {
        OFFSET 0 9.9351 -2.2114
        CHANNELS 6 Xposition Yposition Zposition Zrotation Xrotation Yrotation
        JOINT Neck
        {
          OFFSET 0 22.3885 -0.4656
          CHANNELS 6 Xposition Yposition Zposition Zrotation Xrotation Yrotation
          JOINT Head
          {
            OFFSET -0.0001 12.643 3.4389
            CHANNELS 6 Xposition Yposition Zposition Zrotation Xrotation Yrotation
            End Site
            {
              OFFSET 0.0001 17.6655 0.5274
            }
          }
        }
        JOINT LeftCollar
        {
          OFFSET 2.2603 21.606 7.4023
          CHANNELS 6 Xposition Yposition Zposition Zrotation Xrotation Yrotation
          JOINT LeftShoulder
          {
            OFFSET 13.5163 -1.1332 -5.0146
            CHANNELS 6 Xposition Yposition Zposition Zrotation Xrotation Yrotation
            JOINT LeftElbow
            {
              OFFSET -0.0995 -28.05 -0.2431
              CHANNELS 6 Xposition Yposition Zposition Zrotation Xrotation Yrotation
              JOINT LeftWrist
              {
                OFFSET 0.0679 -23.3996 -0.1402
                CHANNELS 6 Xposition Yposition Zposition Zrotation Xrotation Yrotation
                JOINT LeftFinger1
                {
                  OFFSET 0.7932 -9.069 2.5189
                  CHANNELS 6 Xposition Yposition Zposition Zrotation Xrotation Yrotation
                  JOINT LeftFinger11
                  {
                    OFFSET -0.8272 -3.3923 0.5977
                    CHANNELS 6 Xposition Yposition Zposition Zrotation Xrotation Yrotation
                    JOINT LeftFinger12
                    {
                      OFFSET -0.5649 -2.3158 0.4082
                      CHANNELS 6 Xposition Yposition Zposition Zrotation Xrotation Yrotation
                      End Site
                      {
                        OFFSET -0.4919 -1.6479 0.2673
                      }
                    }
                  }
                }
                JOINT LeftFinger2
                {
                  OFFSET 0.9159 -9.2044 0.2193
                  CHANNELS 6 Xposition Yposition Zposition Zrotation Xrotation Yrotation
                  JOINT LeftFinger21
                  {
                    OFFSET 0.0117 -4.1944 -0.0248
                    CHANNELS 6 Xposition Yposition Zposition Zrotation Xrotation Yrotation
                    JOINT LeftFinger22
                    {
                      OFFSET 0.0071 -2.3249 -0.0142
                      CHANNELS 6 Xposition Yposition Zposition Zrotation Xrotation Yrotation
                      End Site
                      {
                        OFFSET -0.1475 -2.0882 0.0028
                      }
                    }
                  }
                }
                JOINT LeftFinger3
                {
                  OFFSET 0.6113 -8.7231 -2.0637
                  CHANNELS 6 Xposition Yposition Zposition Zrotation Xrotation Yrotation
                  JOINT LeftFinger31
                  {
                    OFFSET -0.1927 -3.8059 -0.2383
                    CHANNELS 6 Xposition Yposition Zposition Zrotation Xrotation Yrotation
                    JOINT LeftFinger32
                    {
                      OFFSET -0.1091 -2.1688 -0.1362
                      CHANNELS 6 Xposition Yposition Zposition Zrotation Xrotation Yrotation
                      End Site
                      {
                        OFFSET -0.2358 -1.9176 -0.0906
                      }
                    }
                  }
                }
                JOINT LeftFinger4
                {
                  OFFSET -0.6151 -8.0947 -3.5641
                  CHANNELS 6 Xposition Yposition Zposition Zrotation Xrotation Yrotation
                  JOINT LeftFinger41
                  {
                    OFFSET -0.4882 -2.341 -0.6462
                    CHANNELS 6 Xposition Yposition Zposition Zrotation Xrotation Yrotation
                    JOINT LeftFinger42
                    {
                      OFFSET -0.3575 -1.7167 -0.4742
                      CHANNELS 6 Xposition Yposition Zposition Zrotation Xrotation Yrotation
                      End Site
                      {
                        OFFSET -0.4187 -1.5237 -0.3496
                      }
                    }
                  }
                }
                JOINT LeftFinger0
                {
                  OFFSET -1.42 -1.8761 1.4223
                  CHANNELS 6 Xposition Yposition Zposition Zrotation Xrotation Yrotation
                  JOINT LeftFinger01
                  {
                    OFFSET -1.1471 -3.4929 2.6334
                    CHANNELS 6 Xposition Yposition Zposition Zrotation Xrotation Yrotation
                    JOINT LeftFinger02
                    {
                      OFFSET -0.823 -2.3 1.6571
                      CHANNELS 6 Xposition Yposition Zposition Zrotation Xrotation Yrotation
                      End Site
                      {
                        OFFSET -0.5822 -1.6914 1.1582
                      }
                    }
                  }
                }
              }
            }
          }
        }
        JOINT RightCollar
        {
          OFFSET -2.2603 21.606 7.4023
          CHANNELS 6 Xposition Yposition Zposition Zrotation Xrotation Yrotation
          JOINT RightShoulder
          {
            OFFSET -13.5187 -1.1334 -5.0155
            CHANNELS 6 Xposition Yposition Zposition Zrotation Xrotation Yrotation
            JOINT RightElbow
            {
              OFFSET 0.0994 -28.0499 -0.2431
              CHANNELS 6 Xposition Yposition Zposition Zrotation Xrotation Yrotation
              JOINT RightWrist
              {
                OFFSET -0.0679 -23.3996 -0.1402
                CHANNELS 6 Xposition Yposition Zposition Zrotation Xrotation Yrotation
                JOINT RightFinger1
                {
                  OFFSET -0.7932 -9.0691 2.5189
                  CHANNELS 6 Xposition Yposition Zposition Zrotation Xrotation Yrotation
                  JOINT RightFinger11
                  {
                    OFFSET 0.8272 -3.3923 0.5977
                    CHANNELS 6 Xposition Yposition Zposition Zrotation Xrotation Yrotation
                    JOINT RightFinger12
                    {
                      OFFSET 0.565 -2.3158 0.4082
                      CHANNELS 6 Xposition Yposition Zposition Zrotation Xrotation Yrotation
                      End Site
                      {
                        OFFSET 0.4919 -1.6479 0.2673
                      }
                    }
                  }
                }
                JOINT RightFinger2
                {
                  OFFSET -0.916 -9.2044 0.2193
                  CHANNELS 6 Xposition Yposition Zposition Zrotation Xrotation Yrotation
                  JOINT RightFinger21
                  {
                    OFFSET -0.0117 -4.1944 -0.0248
                    CHANNELS 6 Xposition Yposition Zposition Zrotation Xrotation Yrotation
                    JOINT RightFinger22
                    {
                      OFFSET -0.0071 -2.3249 -0.0142
                      CHANNELS 6 Xposition Yposition Zposition Zrotation Xrotation Yrotation
                      End Site
                      {
                        OFFSET 0.1475 -2.0882 0.0028
                      }
                    }
                  }
                }
                JOINT RightFinger3
                {
                  OFFSET -0.6113 -8.7231 -2.0637
                  CHANNELS 6 Xposition Yposition Zposition Zrotation Xrotation Yrotation
                  JOINT RightFinger31
                  {
                    OFFSET 0.1927 -3.8059 -0.2383
                    CHANNELS 6 Xposition Yposition Zposition Zrotation Xrotation Yrotation
                    JOINT RightFinger32
                    {
                      OFFSET 0.1091 -2.1688 -0.1362
                      CHANNELS 6 Xposition Yposition Zposition Zrotation Xrotation Yrotation
                      End Site
                      {
                        OFFSET 0.2358 -1.9176 -0.0906
                      }
                    }
                  }
                }
                JOINT RightFinger4
                {
                  OFFSET 0.6151 -8.0947 -3.564
                  CHANNELS 6 Xposition Yposition Zposition Zrotation Xrotation Yrotation
                  JOINT RightFinger41
                  {
                    OFFSET 0.4882 -2.341 -0.6462
                    CHANNELS 6 Xposition Yposition Zposition Zrotation Xrotation Yrotation
                    JOINT RightFinger42
                    {
                      OFFSET 0.3574 -1.7166 -0.4742
                      CHANNELS 6 Xposition Yposition Zposition Zrotation Xrotation Yrotation
                      End Site
                      {
                        OFFSET 0.4187 -1.5237 -0.3496
                      }
                    }
                  }
                }
                JOINT RightFinger0
                {
                  OFFSET 1.4199 -1.8761 1.4221
                  CHANNELS 6 Xposition Yposition Zposition Zrotation Xrotation Yrotation
                  JOINT RightFinger01
                  {
                    OFFSET 1.1472 -3.4929 2.6336
                    CHANNELS 6 Xposition Yposition Zposition Zrotation Xrotation Yrotation
                    JOINT RightFinger02
                    {
                      OFFSET 0.8229 -2.3 1.6571
                      CHANNELS 6 Xposition Yposition Zposition Zrotation Xrotation Yrotation
                      End Site
                      {
                        OFFSET 0.5822 -1.6914 1.1582
                      }
                    }
                  }
                }
              }
            }
          }
        }
      }
    }
  }
  JOINT RightHip
  {
    OFFSET -9.412 3.9771 -0.7758
    CHANNELS 6 Xposition Yposition Zposition Zrotation Xrotation Yrotation
    JOINT RightKnee
    {
      OFFSET -0.7531 -40.938 0
      CHANNELS 6 Xposition Yposition Zposition Zrotation Xrotation Yrotation
      JOINT RightAnkle
      {
        OFFSET 0 -40.1986 0
        CHANNELS 6 Xposition Yposition Zposition Zrotation Xrotation Yrotation
        JOINT RightToe
        {
          OFFSET 0 -4.4182 9.239
          CHANNELS 6 Xposition Yposition Zposition Zrotation Xrotation Yrotation
          End Site
          {
            OFFSET 0 0 6.1981
          }
        }
      }
    }
  }
  JOINT LeftHip
  {
    OFFSET 9.4119 3.9773 -0.7758
    CHANNELS 6 Xposition Yposition Zposition Zrotation Xrotation Yrotation
    JOINT LeftKnee
    {
      OFFSET 0.7532 -40.9383 0
      CHANNELS 6 Xposition Yposition Zposition Zrotation Xrotation Yrotation
      JOINT LeftAnkle
      {
        OFFSET 0 -40.1986 0
        CHANNELS 6 Xposition Yposition Zposition Zrotation Xrotation Yrotation
        JOINT LeftToe
        {
          OFFSET 0 -4.4182 9.239
          CHANNELS 6 Xposition Yposition Zposition Zrotation Xrotation Yrotation
          End Site
          {
            OFFSET 0 0 6.1981
          }
        }
      }
    }
  }
}
MOTION
Frames:	4
Frame Time:	0.0333333
39.8401 28.7435 4.36084 -1.36819e-008 12.8544 -3.32335e-007 7.10543e-015 8.7983 -4.7612 -0.0658216 3.06843 -0.393489 7.10543e-015 8.0291 0.4195 -0.110742 6.13719 -0.785133 -7.10543e-015 9.9351 -2.2114 -0.110742 6.13719 -0.785133 0 22.3885 -0.4656 -1.22254e-006 1.31942 -8.36883e-006 -0.0001 12.643 3.4389 -9.30909 -10.4971 -13.5498 2.2603 21.606 7.4023 -10.3501 8.83302 -39.1408 13.5163 -1.1332 -5.0146 64.1938 23.1819 22.1658 -0.0995 -28.05 -0.2431 -56.6533 -19.4269 -25.6239 0.0679 -23.3996 -0.1402 40.8622 -15.97 10.306 0.7932 -9.069 2.5189 3.18055e-015 -9.54166e-015 3.18055e-015 -0.8272 -3.3923 0.5977 1.14338e-005 -2.68257e-006 -3.39132e-006 -0.5649 -2.3158 0.4082 -3.65291e-006 -1.99154e-006 -3.32776e-007 0.9159 -9.2044 0.2193 3.18055e-015 -9.54166e-015 3.18055e-015 0.0117 -4.1944 -0.0248 -0.0128294 0.00232712 8.31103e-005 0.0071 -2.3249 -0.0142 -7.06225e-031 -6.36111e-015 -6.36111e-015 0.6113 -8.7231 -2.0637 3.18055e-015 -9.54166e-015 3.18055e-015 -0.1927 -3.8059 -0.2383 -0.0160802 0.00300653 0.000858338 -0.1091 -2.1688 -0.1362 4.77083e-015 3.18055e-015 -3.18055e-015 -0.6151 -8.0947 -3.5641 3.18055e-015 -9.54166e-015 3.18055e-015 -0.4882 -2.341 -0.6462 -0.012498 0.00310009 0.00281042 -0.3575 -1.7167 -0.4742 -3.18055e-015 1.27222e-014 -3.18055e-015 -1.42 -1.8761 1.4223 3.18055e-015 -9.54166e-015 3.18055e-015 -1.1471 -3.4929 2.6334 1.14338e-005 -2.68257e-006 -3.39132e-006 -0.823 -2.3 1.6571 -3.65291e-006 -1.99154e-006 -3.32776e-007 -2.2603 21.606 7.4023 8.6388 8.42226 33.1838 -13.5187 -1.1334 -5.0155 -64.5188 19.8289 -19.6163 0.0994 -28.0499 -0.2431 57.9277 -19.5996 26.7987 -0.0679 -23.3996 -0.1402 -41.2544 -15.4556 -11.4573 -0.7932 -9.0691 2.5189 3.18055e-015 6.36111e-015 1.59028e-015 0.8272 -3.3923 0.5977 -3.18055e-015 -3.18055e-015 3.18055e-015 0.565 -2.3158 0.4082 -2.04785e-006 3.30776e-006 2.18465e-007 -0.916 -9.2044 0.2193 3.18055e-015 6.36111e-015 1.59028e-015 -0.0117 -4.1944 -0.0248 0.0129272 0.00231895 -8.51302e-005 -0.0071 -2.3249 -0.0142 4.71181e-006 6.86699e-007 -3.21735e-006 -0.6113 -8.7231 -2.0637 3.18055e-015 6.36111e-015 1.59028e-015 0.1927 -3.8059 -0.2383 0.0163272 0.00304177 -0.000867028 0.1091 -2.1688 -0.1362 -7.92783e-007 1.76368e-006 -1.42766e-006 0.6151 -8.0947 -3.564 3.18055e-015 6.36111e-015 1.59028e-015 0.4882 -2.341 -0.6462 0.0145601 0.0036729 -0.00325582 0.3574 -1.7166 -0.4742 -2.83983e-006 4.23895e-006 -1.20954e-006 1.4199 -1.8761 1.4221 3.18055e-015 6.36111e-015 1.59028e-015 1.1472 -3.4929 2.6336 -3.18055e-015 -3.18055e-015 3.18055e-015 0.8229 -2.3 1.6571 -2.04785e-006 3.30776e-006 2.18465e-007 -9.412 3.9771 -0.7758 -6.97631 -9.47201 -15.2728 -0.7531 -40.938 8.88179e-016 -166.9 84.6721 164.778 3.55271e-015 -40.1986 -1.77636e-015 20.2328 46.5892 -28.1963 0 -4.4182 9.239 -2.95132e-006 -2.45367e-007 8.40375e-007 9.4119 3.9773 -0.7758 6.84627 -9.57372 15.1528 0.7532 -40.9383 -1.77636e-015 167.995 84.7155 -165.788 0 -40.1986 0 -19.6783 45.7214 27.7071 7.10543e-015 -4.4182 9.239 -3.18055e-015 3.18055e-015 3.18055e-015 
39.8401 28.7919 4.01728 2.64704e-008 13.5678 6.53696e-009 0 8.7983 -4.7612 -0.0649546 3.00585 -0.393701 -1.42109e-014 8.0291 0.4195 -0.109418 6.01208 -0.78561 -7.10543e-015 9.9351 -2.2114 -0.109418 6.01209 -0.78561 7.10543e-015 22.3885 -0.4656 1.64494e-006 1.60949 9.42613e-006 -0.0001 12.643 3.4389 -9.28718 -11.1223 -13.5787 2.2603 21.606 7.4023 -10.3501 8.83289 -39.1408 13.5163 -1.1332 -5.0146 64.1939 23.1819 22.1658 -0.0995 -28.05 -0.2431 -56.8966 -19.4702 -25.7208 0.0679 -23.3996 -0.1402 41.1681 -16.0805 10.3577 0.7932 -9.069 2.5189 1.40386e-006 -3.40244e-006 -5.07841e-007 -0.8272 -3.3923 0.5977 -1.40386e-006 1.05671e-006 5.07841e-007 -0.5649 -2.3158 0.4082 1.76556e-031 -3.18055e-015 3.18055e-015 0.9159 -9.2044 0.2193 1.40386e-006 -3.40244e-006 -5.07841e-007 0.0117 -4.1944 -0.0248 -0.0128549 0.00233209 9.15893e-005 0.0071 -2.3249 -0.0142 -5.29669e-031 9.54166e-015 3.18055e-015 0.6113 -8.7231 -2.0637 1.40386e-006 -3.40244e-006 -5.07841e-007 -0.1927 -3.8059 -0.2383 -0.016059 0.00300071 0.000861997 -0.1091 -2.1688 -0.1362 4.77083e-015 6.36111e-015 3.18055e-015 -0.6151 -8.0947 -3.5641 1.40386e-006 -3.40244e-006 -5.07841e-007 -0.4882 -2.341 -0.6462 -0.0125314 0.00310857 0.00280876 -0.3575 -1.7167 -0.4742 -1.59028e-015 -9.54166e-015 -1.59028e-014 -1.42 -1.8761 1.4223 1.40386e-006 -3.40244e-006 -5.07841e-007 -1.1471 -3.4929 2.6334 -1.40386e-006 1.05671e-006 5.07841e-007 -0.823 -2.3 1.6571 1.76556e-031 -3.18055e-015 3.18055e-015 -2.2603 21.606 7.4023 8.6388 8.42214 33.1839 -13.5187 -1.1334 -5.0155 -64.5188 19.8288 -19.6163 0.0994001 -28.0499 -0.2431 58.2601 -19.6484 26.9337 -0.0679001 -23.3996 -0.1402 -41.5784 -15.5469 -11.5029 -0.793201 -9.0691 2.5189 -4.79716e-006 5.68547e-006 1.10888e-006 0.827201 -3.3923 0.5977 9.06296e-006 -2.81997e-006 -1.2463e-006 0.565 -2.3158 0.4082 9.3355e-006 3.55481e-006 -4.61749e-006 -0.916001 -9.2044 0.2193 -4.79716e-006 5.68547e-006 1.10888e-006 -0.0117 -4.1944 -0.0248 0.0129366 0.00230623 -8.62285e-005 -0.0071 -2.3249 -0.0142 3.28769e-006 4.48147e-007 -1.86284e-006 -0.6113 -8.72309 -2.0637 -4.79716e-006 5.68547e-006 1.10888e-006 0.1927 -3.8059 -0.2383 0.0163252 0.00303134 -0.000878736 0.1091 -2.1688 -0.1362 3.54813e-006 1.40265e-006 5.36922e-007 0.6151 -8.0947 -3.564 -4.79716e-006 5.68547e-006 1.10888e-006 0.4882 -2.341 -0.6462 0.0145658 0.00367123 -0.00325419 0.3574 -1.7166 -0.4742 5.78516e-006 3.29571e-006 -5.15322e-006 1.4199 -1.8761 1.4221 -4.79716e-006 5.68547e-006 1.10888e-006 1.1472 -3.4929 2.6336 9.06296e-006 -2.81997e-006 -1.2463e-006 0.8229 -2.3 1.6571 9.3355e-006 3.55481e-006 -4.61749e-006 -9.412 3.9771 -0.7758 -7.05502 -10.6145 -15.4639 -0.7531 -40.938 4.44089e-016 -167.467 84.3027 165.325 3.55271e-015 -40.1986 4.44089e-016 20.2482 46.5848 -28.2151 -3.55271e-015 -4.4182 9.239 9.13257e-006 6.20296e-006 -1.16364e-006 9.4119 3.9773 -0.7758 6.92458 -10.7077 15.342 0.7532 -40.9383 0 168.489 84.3491 -166.262 7.10543e-015 -40.1986 -1.77636e-015 -19.693 45.7166 27.7252 0 -4.4182 9.239 -7.95139e-016 -2.22545e-008 -7.95139e-016 
39.8401 28.8416 3.67347 -2.24212e-008 14.2811 -6.75934e-008 0 8.7983 -4.7612 -0.0640861 2.94328 -0.39391 0 8.0291 0.4195 -0.108092 5.88693 -0.786077 0 9.9351 -2.2114 -0.108092 5.88694 -0.786079 7.10543e-015 22.3885 -0.4656 1.23932e-006 1.89953 1.07677e-005 -0.0001 12.643 3.4389 -9.2655 -11.748 -13.6072 2.2603 21.606 7.4023 -10.3501 8.83289 -39.1408 13.5163 -1.1332 -5.0146 64.1938 23.1818 22.1658 -0.0995 -28.05 -0.2431 -57.1399 -19.513 -25.8179 0.0679 -23.3996 -0.1402 41.4743 -16.1908 10.4102 0.7932 -9.069 2.5189 3.93813e-006 1.86144e-007 3.55749e-006 -0.8272 -3.3923 0.5977 1.11153e-005 -4.20052e-006 -6.58257e-006 -0.5649 -2.3158 0.4082 3.68461e-006 2.10239e-006 6.05064e-006 0.9159 -9.2044 0.2193 3.93813e-006 1.86144e-007 3.55749e-006 0.0117 -4.1944 -0.0248 -0.0127625 0.00230393 8.48708e-005 0.0071 -2.3249 -0.0142 9.70709e-006 -5.25968e-006 -6.07638e-006 0.6113 -8.7231 -2.0637 3.93813e-006 1.86144e-007 3.55749e-006 -0.1927 -3.8059 -0.2383 -0.0160238 0.00299025 0.000860467 -0.1091 -2.1688 -0.1362 4.77083e-015 -3.18055e-015 6.36111e-015 -0.6151 -8.0947 -3.5641 3.93813e-006 1.86144e-007 3.55749e-006 -0.4882 -2.341 -0.6462 -0.0126548 0.00313877 0.0028455 -0.3575 -1.7167 -0.4742 8.58178e-006 -3.63906e-006 -2.35528e-006 -1.42 -1.8761 1.4223 3.93813e-006 1.86144e-007 3.55749e-006 -1.1471 -3.4929 2.6334 1.11153e-005 -4.20052e-006 -6.58257e-006 -0.823 -2.3 1.6571 3.68461e-006 2.10239e-006 6.05064e-006 -2.2603 21.606 7.4023 8.6388 8.42213 33.1839 -13.5187 -1.1334 -5.0155 -64.5188 19.829 -19.6163 0.0994 -28.0499 -0.2431 58.5929 -19.6966 27.0693 -0.0679 -23.3996 -0.1402 -41.9027 -15.638 -11.5491 -0.7932 -9.0691 2.5189 -3.55063e-006 -8.88112e-007 -5.40871e-007 0.8272 -3.3923 0.5977 3.18055e-015 6.36111e-015 1.59028e-015 0.565 -2.3158 0.4082 -1.11319e-014 -1.68301e-006 4.77083e-015 -0.916 -9.2044 0.2193 -3.55063e-006 -8.88112e-007 -5.40871e-007 -0.0117 -4.1944 -0.0248 0.0129523 0.00230793 -7.98478e-005 -0.0071 -2.3249 -0.0142 -4.77083e-015 3.18055e-015 -3.18055e-015 -0.6113 -8.7231 -2.0637 -3.55063e-006 -8.88112e-007 -5.40871e-007 0.1927 -3.8059 -0.2383 0.0163382 0.00303706 -0.000869318 0.1091 -2.1688 -0.1362 -1.59028e-015 6.36111e-015 -1.59028e-015 0.6151 -8.0947 -3.564 -3.55063e-006 -8.88112e-007 -5.40871e-007 0.4882 -2.341 -0.6462 0.0145869 0.00367887 -0.00325808 0.3574 -1.7166 -0.4742 2.76378e-006 -1.4055e-006 -8.88027e-007 1.4199 -1.8761 1.4221 -3.55063e-006 -8.88112e-007 -5.40871e-007 1.1472 -3.4929 2.6336 3.18055e-015 6.36111e-015 1.59028e-015 0.8229 -2.3 1.6571 -1.11319e-014 -1.68301e-006 4.77083e-015 -9.412 3.9771 -0.7758 -7.13724 -11.7569 -15.6572 -0.7531 -40.938 -8.88179e-016 -167.968 83.932 165.805 7.10543e-015 -40.1986 -4.44089e-016 20.2637 46.5802 -28.2341 0 -4.4182 9.239 3.94713e-007 4.1007e-008 7.48113e-007 9.4119 3.9773 -0.7758 7.00646 -11.841 15.5335 0.7532 -40.9383 0 168.923 83.9825 -166.676 -7.10543e-015 -40.1986 1.77636e-015 -19.7078 45.7118 27.7435 0 -4.4182 9.239 6.71215e-006 -4.861e-006 -2.28087e-006 
39.8401 28.8926 3.32944 9.87841e-008 14.9943 -1.32543e-007 -7.10543e-015 8.7983 -4.7612 -0.0632163 2.88073 -0.394118 0 8.0291 0.4195 -0.106765 5.7618 -0.786545 -7.10543e-015 9.9351 -2.2114 -0.106765 5.76181 -0.786545 0 22.3885 -0.4656 2.20703e-006 2.18936 1.45712e-005 -0.0001 12.643 3.4389 -9.24399 -12.3741 -13.6352 2.2603 21.606 7.4023 -10.3501 8.83285 -39.1408 13.5163 -1.1332 -5.0146 64.1938 23.1817 22.1658 -0.0995 -28.05 -0.2431 -57.3835 -19.5554 -25.9152 0.0679 -23.3996 -0.1402 41.7807 -16.3008 10.4632 0.7932 -9.069 2.5189 4.77083e-015 9.54166e-015 6.36111e-015 -0.8272 -3.3923 0.5977 4.77083e-015 -3.18055e-015 -3.18055e-015 -0.5649 -2.3158 0.4082 4.77083e-015 3.18055e-015 3.18055e-015 0.9159 -9.2044 0.2193 4.77083e-015 9.54166e-015 6.36111e-015 0.0117 -4.1944 -0.0248 -0.0128369 0.00232493 9.10248e-005 0.0071 -2.3249 -0.0142 1.40884e-006 -2.00667e-006 -5.03674e-007 0.6113 -8.7231 -2.0637 4.77083e-015 9.54166e-015 6.36111e-015 -0.1927 -3.8059 -0.2383 -0.0160411 0.0029961 0.000856442 -0.1091 -2.1688 -0.1362 8.40668e-007 -1.40258e-006 1.35543e-006 -0.6151 -8.0947 -3.5641 4.77083e-015 9.54166e-015 6.36111e-015 -0.4882 -2.341 -0.6462 -0.0126568 0.00313421 0.0028393 -0.3575 -1.7167 -0.4742 3.09025e-006 2.04842e-006 2.20721e-006 -1.42 -1.8761 1.4223 4.77083e-015 9.54166e-015 6.36111e-015 -1.1471 -3.4929 2.6334 4.77083e-015 -3.18055e-015 -3.18055e-015 -0.823 -2.3 1.6571 4.77083e-015 3.18055e-015 3.18055e-015 -2.2603 21.606 7.4023 8.6388 8.4221 33.1839 -13.5187 -1.1334 -5.0155 -64.5188 19.829 -19.6163 0.0994 -28.0499 -0.2431 58.9257 -19.744 27.2049 -0.0679 -23.3996 -0.1402 -42.2271 -15.7289 -11.5959 -0.7932 -9.0691 2.5189 -2.35352e-006 2.60688e-006 -4.28907e-006 0.8272 -3.3923 0.5977 7.84506e-007 -2.28647e-006 1.42969e-006 0.565 -2.3158 0.4082 -3.18055e-015 -1.42314e-006 -0 -0.916 -9.2044 0.2193 -2.35352e-006 2.60688e-006 -4.28907e-006 -0.0117 -4.1944 -0.0248 0.0129429 0.0023102 -8.72915e-005 -0.0071 -2.3249 -0.0142 -4.77083e-015 3.18055e-015 4.77083e-015 -0.6113 -8.7231 -2.0637 -2.35352e-006 2.60688e-006 -4.28907e-006 0.1927 -3.8059 -0.2383 0.0163362 0.00303213 -0.000873165 0.1091 -2.1688 -0.1362 -3.75073e-006 -4.85084e-006 2.83324e-006 0.6151 -8.0947 -3.564 -2.35352e-006 2.60688e-006 -4.28907e-006 0.4882 -2.341 -0.6462 0.0145973 0.00368072 -0.00326728 0.3574 -1.7166 -0.4742 -6.3603e-006 6.92771e-006 -1.76051e-006 1.4199 -1.8761 1.4221 -2.35352e-006 2.60688e-006 -4.28907e-006 1.1472 -3.4929 2.6336 7.84506e-007 -2.28647e-006 1.42969e-006 0.8229 -2.3 1.6571 -3.18055e-015 -1.42314e-006 -0 -9.412 3.9771 -0.7758 -7.22324 -12.8971 -15.8531 -0.7531 -40.938 8.88179e-016 -168.409 83.5621 166.226 0 -40.1986 -1.77636e-015 20.2792 46.5756 -28.2531 3.55271e-015 -4.4182 9.239 -3.95151e-007 -2.03841e-008 -7.47699e-007 9.4119 3.9773 -0.7758 7.09201 -12.9728 15.7274 0.7532 -40.9383 -1.77636e-015 169.308 83.616 -167.042 0 -40.1986 -1.77636e-015 -19.7225 45.7069 27.7617 -7.10543e-015 -4.4182 9.239 7.15625e-015 -3.18055e-015 -2.38542e-015 
